<?xml version="1.0" standalone="no"?>
<!DOCTYPE svg PUBLIC "-//W3C//DTD SVG 20010904//EN"
 "http://www.w3.org/TR/2001/REC-SVG-20010904/DTD/svg10.dtd">
<svg version="1.0" xmlns="http://www.w3.org/2000/svg"
 width="1920.000000pt" height="1800.000000pt" viewBox="0 0 1920.000000 1800.000000"
 preserveAspectRatio="xMidYMid meet">

<g transform="translate(0.000000,1800.000000) scale(0.100000,-0.100000)"
fill="#ad0b7c" stroke="none">
<path d="M9451 13765 c-248 -56 -477 -231 -656 -500 -65 -98 194 349 -2273
-3926 -1144 -1984 -2104 -3652 -2132 -3709 -173 -345 -197 -688 -64 -941 119
-226 346 -375 679 -445 87 -18 215 -19 4595 -19 4380 0 4508 1 4595 19 342 72
570 225 686 461 53 108 70 179 76 315 9 192 -40 399 -145 609 -36 72 -3315
5763 -4260 7394 -151 260 -213 347 -332 467 -133 134 -280 225 -425 265 -85
23 -264 28 -344 10z m310 -498 c36 -12 92 -38 125 -57 80 -47 227 -196 296
-300 68 -103 -9 44 991 -1885 l824 -1590 948 -1640 c1033 -1788 1126 -1959
1239 -2298 53 -157 69 -251 64 -375 -5 -135 -33 -206 -114 -282 -79 -75 -174
-113 -322 -130 -98 -11 -8078 106 -8177 120 -279 39 -445 107 -558 230 -119
128 -152 282 -108 497 41 196 40 195 1177 2118 l1071 1810 867 1654 c478 910
882 1677 899 1705 131 217 304 372 477 427 82 26 217 25 301 -4z"/>
<path d="M9487 13076 c-32 -13 -76 -37 -98 -52 -60 -41 -156 -148 -214 -238
-29 -45 -303 -560 -610 -1146 -1265 -2415 -1111 -2135 -1875 -3425 -1608
-2717 -1468 -2473 -1521 -2645 -29 -93 -33 -244 -7 -301 58 -132 217 -211 503
-249 100 -13 7707 -125 8015 -117 153 3 182 7 235 27 134 52 170 148 129 347
-29 142 -150 446 -276 697 -17 34 -427 747 -911 1586 -484 839 -924 1602 -977
1695 -54 94 -465 881 -915 1750 -449 869 -835 1614 -858 1655 -107 198 -233
342 -351 400 -92 46 -186 51 -269 16z"/>
</g>
</svg>
